<svg width="69" height="69" viewBox="0 0 69 69" fill="none" xmlns="http://www.w3.org/2000/svg">
<path fill-rule="evenodd" clip-rule="evenodd" d="M34.9978 14C35.7553 14 36.4818 14.2634 37.0175 14.7322C37.5531 15.2009 37.8541 15.8368 37.8541 16.4997V45.4615L50.1134 34.7277C50.3789 34.4953 50.6942 34.3109 51.0412 34.1851C51.3882 34.0593 51.76 33.9946 52.1356 33.9946C52.5112 33.9946 52.8831 34.0593 53.2301 34.1851C53.577 34.3109 53.8923 34.4953 54.1579 34.7277C54.4235 34.9601 54.6341 35.236 54.7778 35.5397C54.9216 35.8433 54.9955 36.1688 54.9955 36.4975C54.9955 36.8262 54.9216 37.1516 54.7778 37.4553C54.6341 37.759 54.4235 38.0349 54.1579 38.2673L37.02 53.2656C36.7547 53.4984 36.4395 53.6831 36.0925 53.8091C35.7455 53.9351 35.3735 54 34.9978 54C34.6221 54 34.2501 53.9351 33.903 53.8091C33.556 53.6831 33.2408 53.4984 32.9755 53.2656L15.8377 38.2673C15.5721 38.0349 15.3614 37.759 15.2177 37.4553C15.074 37.1516 15 36.8262 15 36.4975C15 36.1688 15.074 35.8433 15.2177 35.5397C15.3614 35.236 15.5721 34.9601 15.8377 34.7277C16.374 34.2583 17.1014 33.9946 17.8599 33.9946C18.2355 33.9946 18.6074 34.0593 18.9544 34.1851C19.3013 34.3109 19.6166 34.4953 19.8822 34.7277L32.1415 45.4615V16.4997C32.1415 15.8368 32.4424 15.2009 32.9781 14.7322C33.5137 14.2634 34.2402 14 34.9978 14V14Z" fill="black"/>
</svg>
